<svg width="106" height="115" viewBox="0 0 106 115" fill="none" xmlns="http://www.w3.org/2000/svg">
<path d="M98.5815 5.78185C96.0163 0.829683 90.0695 0.453733 86.5066 0.220384C86.105 0.194457 85.7163 0.168529 85.3665 0.142602C84.615 0.064819 83.7599 0 82.8919 0C77.9427 0 74.9888 2.92982 74.9888 7.83013C74.9888 10.2544 75.4034 16.464 76.4917 21.8699C73.1231 20.1068 65.2459 16.6974 53.9613 16.3733C53.8058 16.3473 53.5726 16.3344 53.3135 16.3344H52.7823H52.6786H52.2511C51.979 16.3344 51.7588 16.3603 51.6033 16.3733C40.3187 16.6974 32.4285 20.1068 29.0729 21.8699C30.1612 16.464 30.5758 10.2544 30.5758 7.83013C30.5758 2.92982 27.6218 0 22.6727 0C21.8046 0 20.9495 0.064819 20.1981 0.142602C19.8483 0.168529 19.4596 0.194457 19.058 0.220384C15.4951 0.453733 9.5483 0.829683 6.98302 5.78185C4.59913 10.371 -1.37356 39.0599 0.284799 56.8203C1.95612 74.7622 9.4317 85.3406 14.3679 92.3411L14.8991 93.093C18.177 97.747 23.6962 100.443 30.0964 100.508C33.0633 104.786 40.8499 114.12 52.0827 114.12C52.3159 114.12 52.5491 114.107 52.7823 114.081C53.0155 114.107 53.2487 114.12 53.4819 114.12C64.7147 114.12 72.5012 104.786 75.4681 100.508C79.3549 100.469 86.2216 99.4063 90.6655 93.093L91.1967 92.3411C96.1329 85.3406 103.608 74.7622 105.28 56.8203C106.938 39.0599 100.965 10.371 98.5815 5.78185ZM101.406 56.4573C99.7735 73.9844 92.4016 83.8757 87.4783 90.8632C83.9154 95.932 78.1112 96.6191 75.209 96.6191C74.1078 96.6191 73.4211 96.5284 73.4211 96.5284C73.4211 96.5284 65.6346 110.231 53.4819 110.231C53.2487 110.231 53.0155 110.192 52.7823 110.114C52.5491 110.192 52.3159 110.231 52.0827 110.231C39.93 110.231 32.1435 96.5284 32.1435 96.5284C32.1435 96.5284 31.4568 96.6191 30.3555 96.6191C27.4534 96.6191 21.6492 95.932 18.0863 90.8632C13.163 83.8757 5.79108 73.9844 4.14567 56.4573C2.51322 38.9303 8.65434 10.9933 10.4293 7.57085C12.2043 4.14841 17.5292 4.27805 20.5349 4.00581C21.2605 3.95396 21.986 3.88914 22.6727 3.88914C24.8622 3.88914 26.689 4.52436 26.689 7.83013C26.689 12.186 25.5878 23.1144 23.4112 27.0684C21.2216 31.0224 17.8012 32.0854 16.1688 38.4117C14.5234 44.738 15.6246 55.0183 15.6246 55.0183C15.6246 55.0183 15.8967 44.4658 19.8612 38.0098C23.8128 31.5539 28.8656 29.0519 28.8656 29.0519L29.4098 26.148C29.4098 26.148 37.7404 20.6124 51.8883 20.2494C52.0049 20.2494 52.1345 20.2235 52.2511 20.2235C52.4325 20.2235 52.6009 20.2365 52.7823 20.2365C52.9637 20.2365 53.1321 20.2235 53.3135 20.2235C53.4301 20.2235 53.5596 20.2494 53.6762 20.2494C67.8241 20.6124 76.1548 26.148 76.1548 26.148L76.699 29.0519C76.699 29.0519 81.7518 31.5539 85.7033 38.0098C89.6679 44.4658 89.9399 55.0183 89.9399 55.0183C89.9399 55.0183 91.0282 44.738 89.3958 38.4117C87.7504 32.0854 84.343 31.0224 82.1534 27.0684C79.9768 23.1144 78.8756 12.186 78.8756 7.83013C78.8756 4.52436 80.7023 3.88914 82.8919 3.88914C83.5786 3.88914 84.3041 3.95396 85.0296 4.00581C88.0225 4.27805 93.3603 4.14841 95.1353 7.57085C96.9102 10.9933 103.051 38.9303 101.406 56.4573Z" fill="#00A5FF"/>
<path d="M25.1473 74.5808C24.6161 74.5808 24.072 74.3604 23.6963 73.9326C22.9837 73.1288 23.0614 71.9103 23.8517 71.1972C24.0461 71.0157 28.788 66.8544 35.4084 66.3358C41.135 65.8821 42.314 65.6876 45.5659 61.9152C48.3126 58.7261 50.9944 57.1315 53.767 57.0278C56.2934 56.9112 58.7939 58.1038 61.1908 60.5151C62.1366 61.4614 62.901 62.2522 63.5488 62.9263C66.2047 65.6747 66.3084 65.7913 68.4072 65.8691C75.3646 66.1154 83.0604 69.8101 83.3843 69.9657C84.356 70.4324 84.7576 71.5991 84.2912 72.5584C83.8248 73.5307 82.6588 73.9326 81.7 73.4659C81.6223 73.427 74.4058 69.9657 68.2777 69.7583C64.6111 69.6286 63.6394 68.6175 60.7632 65.6358C60.1284 64.9746 59.3769 64.1968 58.4571 63.2764C56.8505 61.6689 55.3347 60.891 53.9225 60.9299C52.29 60.9947 50.528 62.1485 48.5328 64.469C44.361 69.3175 41.9771 69.7323 35.7323 70.225C30.4593 70.6398 26.4948 74.0882 26.4559 74.1141C26.0802 74.4382 25.6267 74.6067 25.1732 74.6067L25.1473 74.5808Z" fill="#00A5FF"/>
<path d="M53.6633 90.6169C50.1522 90.6169 46.9003 89.8521 44.5164 88.4649C43.4929 87.8686 43.1431 86.5463 43.739 85.5222C44.335 84.498 45.6565 84.148 46.68 84.7443C48.3902 85.7425 50.9296 86.313 53.6503 86.313C57.4335 86.313 60.1024 85.2499 61.3332 84.2647C62.2661 83.5257 63.6135 83.6683 64.3649 84.6017C65.1034 85.5351 64.9609 86.8834 64.0281 87.6353C61.696 89.515 57.8092 90.6299 53.6503 90.6299L53.6633 90.6169Z" fill="#00A5FF"/>
<path d="M53.7154 98.7192C50.5412 98.7192 47.6132 98.0321 45.4625 96.7746C44.5297 96.2301 44.2187 95.0375 44.7629 94.117C45.307 93.1836 46.486 92.8725 47.4188 93.417C48.9606 94.3115 51.2538 94.83 53.7154 94.83C57.1228 94.83 59.5327 93.8707 60.6469 92.9762C61.489 92.3021 62.7069 92.4447 63.3806 93.2744C64.0543 94.117 63.9118 95.3356 63.0826 96.0097C60.9708 97.708 57.4727 98.7192 53.7154 98.7192Z" fill="#00A5FF"/>
</svg>
