<svg width="105" height="123" viewBox="0 0 105 123" fill="none" xmlns="http://www.w3.org/2000/svg">
<path d="M52.7298 15.2218C73.5868 15.2218 90.4994 32.1446 90.4994 53.0143C90.4994 73.8839 73.5868 90.8068 52.7298 90.8068C31.8728 90.8068 14.9601 73.8839 14.9601 53.0143C14.9601 32.1446 31.8728 15.2218 52.7298 15.2218ZM52.7298 10.9626C29.5601 10.9626 10.7036 29.8305 10.7036 53.0143C10.7036 76.198 29.5601 95.0659 52.7298 95.0659C75.8995 95.0659 94.756 76.198 94.756 53.0143C94.756 29.8305 75.8995 10.9626 52.7298 10.9626Z" fill="#00A5FF"/>
<path d="M70.3234 28.8225H34.7104L22.4658 47.733L52.0345 85.7242L82.9937 47.7472L70.3234 28.8225ZM57.2843 72.5636L64.946 49.4508H76.1123L57.2843 72.5636ZM29.1911 49.4508H40.0311L46.9551 72.2654L29.1911 49.4508ZM43.1668 33.0816L40.2439 45.1917H29.1769L37.0232 33.0816H43.1668ZM57.795 33.0816L60.7888 45.1917H44.614L47.5368 33.0816H57.795ZM68.0533 33.0816L76.1549 45.1917H65.173L62.1793 33.0816H68.0533ZM60.4625 49.4508L52.1197 74.608L44.4863 49.4508H60.4625Z" fill="#00A5FF"/>
<path d="M91.0527 88.5353C99.6934 79.2078 105 66.7144 105 53.0143C105 24.1801 81.5606 0.712402 52.7297 0.712402C23.8988 0.712402 0.459473 24.1659 0.459473 53.0143C0.459473 81.8627 23.8988 105.316 52.7297 105.316C57.8801 105.316 62.8602 104.55 67.5566 103.158L75.6299 115.978C77.602 119.101 80.6667 121.274 84.2706 122.097C85.2922 122.324 86.3279 122.452 87.3495 122.452C89.9318 122.452 92.4574 121.728 94.6991 120.322C101.155 116.248 103.099 107.687 99.0266 101.227L91.0385 88.5495L91.0527 88.5353ZM4.7302 53.0143C4.7302 26.48 26.2257 4.97151 52.7439 4.97151C79.2621 4.97151 100.758 26.48 100.758 53.0143C100.758 79.5485 79.2621 101.057 52.7439 101.057C26.2257 101.057 4.7302 79.5485 4.7302 53.0143ZM96.6713 110.711C96.1038 113.21 94.5998 115.325 92.4431 116.702C90.2865 118.065 87.7184 118.505 85.2212 117.937C82.7241 117.369 80.61 115.865 79.2337 113.707L71.6996 101.739C77.7439 99.3676 83.249 95.9319 87.9596 91.616L95.4369 103.485C96.799 105.657 97.2389 108.212 96.6713 110.711Z" fill="#00A5FF"/>
</svg>
