<svg width="164" height="140" viewBox="0 0 164 140" fill="none" xmlns="http://www.w3.org/2000/svg">
<path d="M155.54 98.3085C154.642 97.4569 153.646 96.7673 152.574 96.2476C152.373 95.2389 152.097 94.3475 151.793 93.5875C150.328 89.8991 147.374 86.922 143.701 85.4081C141.518 84.5091 138.894 84.414 137.869 84.4145L137.867 84.5136C137.574 84.0136 137.261 83.5383 136.918 83.0767C134.688 80.1006 131.481 78.2364 127.636 77.6903C123.023 77.0363 118.43 78.1838 114.935 80.8433C113.723 80.5085 111.669 80.0575 109.724 80.2169C105.766 80.5523 102.058 82.5018 99.5434 85.5722C99.0214 86.2054 98.4925 86.9716 97.9968 87.8742C96.8181 88.0503 95.6555 88.3997 94.5474 88.9461C90.9207 90.718 88.3448 93.6194 87.2961 97.1267C86.0582 101.258 86.9314 105.912 89.9088 110.952C96.2515 121.706 109.094 129.784 114.592 128.442C114.666 128.424 114.738 128.393 114.812 128.375C115.867 128.768 116.938 128.986 117.914 128.866C118.51 129.154 119.112 129.335 119.723 129.39C120.18 129.429 120.661 129.384 121.155 129.283C122.061 129.712 123.169 129.836 124.318 129.779C126.387 131.205 130.525 131.233 135.316 130.063C141.224 128.621 148.121 125.368 153.326 120.695C157.679 116.788 159.925 112.614 159.989 108.303C160.042 104.645 158.466 101.095 155.541 98.3147L155.54 98.3085ZM139.042 87.0118C140.445 87.1094 141.771 87.3768 142.727 87.7674C145.764 89.0163 148.205 91.4813 149.415 94.5291C151.006 98.5154 150.571 103.462 148.161 108.819C143.935 118.225 134.997 124.098 128.63 126.27C127.345 126.708 126.246 126.97 125.321 127.11C127.305 125.549 129.385 123.228 131.398 120.28C135.7 113.982 138.804 105.98 139.918 98.3252C140.539 94.0618 140.234 90.2282 139.039 86.9994L139.042 87.0118ZM101.521 87.1912C103.602 84.6539 106.669 83.0382 109.939 82.7655C110.718 82.7002 111.674 82.7689 112.682 82.9433C109.737 86.2697 108.025 90.9371 107.728 96.606C107.131 107.859 109.918 119.251 114.036 125.195C113.352 124.816 112.591 124.332 111.758 123.721C106.344 119.729 99.6021 111.43 98.4101 101.192C97.7339 95.354 98.8117 90.5128 101.528 87.1897L101.521 87.1912ZM92.1013 109.655C89.5026 105.252 88.7122 101.287 89.7357 97.8645C90.8773 94.0653 93.9403 92.0828 95.6659 91.2412C96.012 91.0714 96.3656 90.9325 96.7223 90.8061C95.8251 93.5079 95.3459 97.0075 95.8688 101.491C97.0798 111.915 103.607 120.463 109.233 125.001C104.123 122.82 96.6532 117.378 92.1013 109.655ZM110.271 96.747C110.591 90.7378 112.606 86.0489 116.09 83.182C117.66 81.8923 119.521 80.9849 121.536 80.4932C123.37 80.0453 125.323 79.9432 127.283 80.2265C130.44 80.6712 133.064 82.1917 134.878 84.6192C137.322 87.8782 138.188 92.5011 137.396 97.9753C135.162 113.365 125.693 125.594 120.865 126.773C120.536 126.853 120.228 126.882 119.946 126.859C115.617 126.477 109.431 112.545 110.274 96.7594L110.271 96.747ZM157.431 108.264C157.377 111.837 155.425 115.381 151.62 118.793C144.944 124.783 136.181 127.711 130.651 128.253C137.386 125.624 146.184 119.45 150.494 109.872C152.346 105.755 152.941 102.273 152.903 99.4251C153.208 99.6528 153.502 99.8897 153.784 100.156C155.171 101.479 157.5 104.293 157.437 108.263L157.431 108.264Z" fill="#00A5FF" stroke="#00A5FF" stroke-width="1.2"/>
<path d="M107.786 73.3101C109.691 68.1534 106.613 61.1138 98.6462 52.3794C94.1559 47.4618 89.4193 43.4422 87.4639 41.8416C88.5647 39.582 91.172 34.0126 93.2506 27.9289C97.0311 16.8335 97.0601 10.04 93.3447 7.15756C85.2187 0.863871 63.6362 14.6897 58.2044 18.3544C53.5764 13.8206 35.1806 -3.29329 26.7142 2.00818C22.108 4.89067 20.5799 12.0462 22.1877 23.2648C23.0713 29.4643 24.6646 35.1351 25.3816 37.5251C23.1654 38.6622 18.0088 41.4433 12.9898 45.079C3.87878 51.6769 -0.0755947 57.6736 1.24977 62.9027C3.19075 70.5652 26.9967 73.8822 34.0798 74.7006C35.2241 80.1976 40.2141 101.28 49.8249 103.967C50.3608 104.119 50.8895 104.185 51.4254 104.185C60.913 104.185 70.3355 81.7765 72.7255 75.6783C79.2726 77.2717 104.324 82.6818 107.786 73.3028V73.3101ZM105.07 72.3106C103.948 75.3524 97.893 76.4605 88.0288 75.4249C80.0041 74.5847 72.2764 72.5931 72.1968 72.5713L70.9366 72.2454L70.4803 73.4694C70.4513 73.5491 67.5254 81.3202 63.4551 88.6351C58.4434 97.6447 53.8734 102.106 50.6143 101.186C43.227 99.1221 38.0849 80.2266 36.7233 73.1145L36.5205 72.0571L35.4559 71.9412C23.1147 70.6231 5.21139 66.7267 4.06708 62.1929C2.00299 54.0452 20.4785 43.1018 27.7644 39.5747L28.9014 39.0243L28.5103 37.8221C25.9755 30.0871 20.9854 9.01162 28.2569 4.46337C28.9087 4.05055 29.7053 3.86224 30.6107 3.86224C37.2303 3.86224 49.7742 13.9437 57.0094 21.2441L57.864 22.106L58.8634 21.4107C58.9286 21.3672 65.4396 16.8407 72.8414 13.1615C82.0755 8.56259 88.7313 7.24447 91.5703 9.44617C96.3648 13.1615 89.6945 31.1301 84.3641 41.5882L83.8209 42.6528L84.7624 43.3915C91.4544 48.6206 108.141 64.0108 105.077 72.3106H105.07Z" fill="#00A5FF" stroke="#00A5FF" stroke-width="1.2"/>
<path d="M49.4844 78.5897C50.2738 78.568 50.8966 77.9162 50.8749 77.1268C50.846 76.0259 50.8315 74.8744 50.8315 73.6794C50.8315 71.3328 50.8894 68.9428 51.0053 66.5673C51.0415 65.7778 50.4331 65.1115 49.6437 65.0681C48.847 65.0246 48.188 65.6402 48.1445 66.4297C48.0286 68.8486 47.9707 71.2894 47.9707 73.6794C47.9707 74.9033 47.9852 76.0766 48.0142 77.1992C48.0359 77.9741 48.666 78.5897 49.4409 78.5897H49.4771H49.4844Z" fill="#00A5FF" stroke="#00A5FF" stroke-width="1.2"/>
<path d="M51.5627 87.6499C51.4758 86.8677 50.7806 86.3028 49.9839 86.3825C49.2017 86.4694 48.6368 87.1719 48.7165 87.9613C49.0207 90.7207 49.3031 92.2489 49.3103 92.3141C49.4407 93.0021 50.0346 93.4801 50.7154 93.4801C50.8023 93.4801 50.8892 93.4728 50.9761 93.4584C51.7511 93.3135 52.2653 92.5675 52.1204 91.7926C52.1204 91.7781 51.8452 90.2934 51.5555 87.6499H51.5627Z" fill="#00A5FF" stroke="#00A5FF" stroke-width="1.2"/>
<path d="M94.3805 65.901C96.3939 67.5813 97.5672 68.6676 97.5744 68.6821C97.8497 68.9428 98.2045 69.066 98.5522 69.066C98.936 69.066 99.3199 68.9139 99.6023 68.6097C100.146 68.0303 100.109 67.1177 99.5299 66.5746C99.4792 66.5311 98.2915 65.423 96.2129 63.6921C95.6045 63.1851 94.692 63.2648 94.185 63.8731C93.678 64.4815 93.7577 65.394 94.366 65.901H94.3805Z" fill="#00A5FF" stroke="#00A5FF" stroke-width="1.2"/>
<path d="M79.3884 51.7999C77.3316 50.5976 75.282 49.504 73.3048 48.5335C72.595 48.1859 71.7332 48.4828 71.3783 49.1999C71.0306 49.9169 71.3276 50.7787 72.0446 51.1263C73.9638 52.0606 75.941 53.1253 77.9399 54.2913C78.1717 54.4217 78.4179 54.4868 78.6642 54.4868C79.1567 54.4868 79.6419 54.2334 79.9099 53.7698C80.3082 53.0818 80.0765 52.2055 79.3957 51.7999H79.3884Z" fill="#00A5FF" stroke="#00A5FF" stroke-width="1.2"/>
<path d="M90.8318 59.4338C88.9777 58.0432 87.0874 56.7034 85.2261 55.4577C84.5671 55.0159 83.669 55.1897 83.2272 55.856C82.7854 56.5151 82.9592 57.4131 83.6255 57.8549C85.4506 59.0717 87.2902 60.3825 89.1081 61.7441C89.3688 61.9397 89.673 62.0338 89.9699 62.0338C90.4045 62.0338 90.839 61.831 91.1215 61.4544C91.5995 60.8171 91.4691 59.919 90.8318 59.441V59.4338Z" fill="#00A5FF" stroke="#00A5FF" stroke-width="1.2"/>
<path d="M66.9386 45.7888C65.635 45.3035 64.3386 44.8762 63.0711 44.4996C62.6873 42.6383 60.8767 40.7625 59.602 39.6399C60.6377 37.3803 60.9563 35.8014 60.8912 34.6933C61.007 34.6354 61.1157 34.5702 61.2098 34.4761C62.1948 33.5635 63.2377 32.6437 64.3168 31.7312C64.9107 31.2314 64.9831 30.3479 64.4834 29.754C63.9837 29.1601 63.1001 29.0877 62.5062 29.5874C61.4271 30.5 60.3769 31.427 59.3847 32.3395C57.5814 31.5791 54.8654 32.89 52.8955 34.1357C51.5774 32.9262 49.8392 31.6225 48.2676 31.3328C47.8403 30.2175 47.384 29.1022 46.877 28.0013C46.5511 27.2988 45.7182 26.9874 45.0157 27.3133C44.3132 27.6392 44.0018 28.4721 44.3277 29.1746C44.8057 30.2103 45.233 31.2604 45.6313 32.3033C44.4218 33.8967 44.8709 36.7647 45.3344 38.568C43.7483 39.4661 41.4452 41.0957 41.1193 43.0149C40.9962 43.0149 40.8658 43.0366 40.7354 43.0728C39.3738 43.5074 38.0195 43.9637 36.7231 44.4127C35.9916 44.6662 35.6078 45.4629 35.8613 46.1943C36.0641 46.7737 36.6072 47.1359 37.1794 47.1359C37.3315 47.1359 37.4908 47.1069 37.6429 47.0562C38.9176 46.6072 40.2502 46.1654 41.59 45.7381C41.7856 45.6729 41.9594 45.5715 42.1042 45.4411C42.9082 46.0278 44.4218 46.6579 47.355 47.0634C47.7171 48.5337 48.4052 50.5543 49.5785 51.6986C49.3829 53.0167 49.2091 54.3566 49.0425 55.6892C48.9484 56.4714 49.506 57.1811 50.2882 57.2753C50.3462 57.2753 50.4041 57.2825 50.462 57.2825C51.1718 57.2825 51.7946 56.7466 51.8816 56.0223C52.0264 54.8201 52.1857 53.6106 52.3596 52.4156C53.9891 51.8 55.2855 49.5114 56.1401 47.5342C58.1897 47.9543 60.7318 48.186 62.1224 47.2155C63.3608 47.5777 64.6355 47.9977 65.9174 48.4757C66.084 48.5409 66.2506 48.5699 66.4244 48.5699C67.0038 48.5699 67.5542 48.215 67.7715 47.6356C68.0467 46.8896 67.6701 46.064 66.9241 45.7815L66.9386 45.7888ZM55.6331 44.4489L54.373 44.123L53.9167 45.347C53.2431 47.1431 52.1713 49.0551 51.5556 49.591C51.0342 49.0479 50.3172 47.201 49.984 45.4701L49.7812 44.4199L48.7166 44.3041C46.8553 44.1013 44.8347 43.6378 44.067 43.2539C44.4653 42.5876 46.1021 41.3781 47.6954 40.6032L48.8325 40.0527L48.4414 38.8505C47.8403 37.0109 47.5795 34.7947 47.8475 34.1864C48.579 34.3529 50.3317 35.6204 51.7077 37.0109L52.5623 37.8728L53.5618 37.1775C55.1696 36.0622 57.1613 35.0989 58.0159 35.0048C57.9869 35.8376 57.3424 37.7496 56.5167 39.372L55.9735 40.4366L56.9151 41.1681C58.5301 42.4283 60.051 44.1882 60.2466 44.9486C59.4716 45.1225 57.4293 44.9124 55.6331 44.4489Z" fill="#00A5FF" stroke="#00A5FF" stroke-width="1.2"/>
<path d="M86.6813 15.1096C86.3265 14.4216 85.4791 14.1536 84.7911 14.5085C84.7331 14.5375 83.3353 15.269 81.0612 16.6016C80.3949 16.9927 80.1704 17.8545 80.5615 18.5208C80.8222 18.9699 81.293 19.2161 81.771 19.2161C82.01 19.2161 82.2562 19.1509 82.4807 19.0205C84.6897 17.7242 86.073 17.0072 86.0874 16.9999C86.7755 16.645 87.0435 15.7977 86.6886 15.1096H86.6813Z" fill="#00A5FF" stroke="#00A5FF" stroke-width="1.2"/>
<path d="M76.5927 20.9832C76.1654 20.3386 75.2963 20.1575 74.6517 20.5848C72.5152 21.9899 70.4294 23.4456 68.4522 24.9013C67.8294 25.3648 67.699 26.2412 68.1553 26.864C68.4305 27.2334 68.8578 27.4362 69.2851 27.4362C69.5748 27.4362 69.8645 27.3493 70.118 27.161C72.0517 25.7342 74.0941 24.3074 76.1871 22.9314C76.8317 22.5041 77.0128 21.635 76.5855 20.9904L76.5927 20.9832Z" fill="#00A5FF" stroke="#00A5FF" stroke-width="1.2"/>
<path d="M12.3307 56.5945C9.99859 58.4341 9.11501 59.6074 9.02086 59.7305C8.56459 60.3533 8.70219 61.2152 9.31779 61.6787C9.57128 61.867 9.86098 61.9539 10.1507 61.9539C10.578 61.9539 10.9981 61.7584 11.2733 61.3963C11.2805 61.389 12.041 60.3896 14.0688 58.789C14.6772 58.311 14.7786 57.4274 14.3006 56.8263C13.8226 56.2179 12.9463 56.1165 12.3379 56.5945H12.3307Z" fill="#00A5FF" stroke="#00A5FF" stroke-width="1.2"/>
<path d="M28.2712 47.6718C25.2946 48.9392 22.5352 50.2646 20.0656 51.6044C19.3848 51.9738 19.1385 52.8212 19.5079 53.502C19.7614 53.9655 20.2394 54.2335 20.7391 54.2335C20.9636 54.2335 21.1954 54.1755 21.4054 54.0596C23.8026 52.756 26.4824 51.4741 29.3721 50.2429C30.0819 49.9387 30.415 49.1203 30.1108 48.4105C29.8066 47.7008 28.9882 47.3676 28.2785 47.6718H28.2712Z" fill="#00A5FF" stroke="#00A5FF" stroke-width="1.2"/>
<path d="M35.934 11.5682C34.1451 9.59098 32.9429 8.49737 32.8922 8.45392C32.3201 7.93246 31.4292 7.98316 30.9078 8.55531C30.3863 9.13471 30.437 10.0183 31.0092 10.5397C31.0237 10.547 32.168 11.5899 33.8482 13.4512C34.1234 13.7554 34.5073 13.9147 34.8911 13.9147C35.2243 13.9147 35.5647 13.7916 35.8326 13.5526C36.4048 13.0311 36.4555 12.1476 35.934 11.5682Z" fill="#00A5FF" stroke="#00A5FF" stroke-width="1.2"/>
<path d="M41.38 23.5978C41.6408 24.0395 42.1115 24.2786 42.5823 24.2786C42.8285 24.2786 43.0748 24.2134 43.3065 24.0758C43.9728 23.6774 44.1829 22.8156 43.7845 22.1493C42.6692 20.2952 41.4307 18.4484 40.1126 16.6667C39.6491 16.0439 38.7727 15.9135 38.1499 16.377C37.527 16.8406 37.3967 17.7169 37.8602 18.3397C39.1276 20.049 40.3154 21.8161 41.38 23.5905V23.5978Z" fill="#00A5FF" stroke="#00A5FF" stroke-width="1.2"/>
</svg>
