<svg width="131" height="36" viewBox="0 0 131 36" fill="none" xmlns="http://www.w3.org/2000/svg">
<g clip-path="url(#clip0_25_70)">
<path d="M109.167 10.0032L105.038 0H101.889L108.02 14.8179H110.313L116.444 0H113.296L109.167 10.0032Z" fill="#013077"/>
<path d="M127.567 9.04158C131.86 6.79942 130.327 0.0113931 125.436 0H118.551V14.8179H121.436V9.5725H124.538L127.656 14.8179H130.998L127.564 9.04158H127.567ZM125.138 6.8017H121.436V2.77081H125.138C126.224 2.77081 127.104 3.67314 127.104 4.78739C127.104 5.90164 126.224 6.80397 125.138 6.80397V6.8017Z" fill="#013077"/>
<path d="M10.9463 7.58553C-3.65341 7.96834 -3.64675 29.9047 10.9463 30.2829H22.0106C22.0106 30.2829 22.015 18.9878 22.015 18.9331C22.015 12.6646 17.0596 7.58325 10.9463 7.58325V7.58553ZM17.5684 25.7257C17.5684 25.7257 10.9486 25.7257 10.9463 25.7257C7.28862 25.7257 4.32201 22.686 4.32201 18.9331C4.54422 9.97581 17.3485 9.97581 17.5684 18.9331C17.5684 18.965 17.5662 25.7257 17.5662 25.7257H17.5684Z" fill="#013077"/>
<path d="M89.8672 7.58553C75.2675 7.96834 75.2742 29.9047 89.8672 30.2829H100.931C100.931 30.2829 100.936 18.9878 100.936 18.9331C100.936 12.6646 95.9805 7.58325 89.8672 7.58325V7.58553ZM96.4893 25.7257C96.4893 25.7257 89.8695 25.7257 89.8672 25.7257C86.2095 25.7257 83.2429 22.686 83.2429 18.9331C83.4651 9.97581 96.2693 9.97581 96.4893 18.9331C96.4893 18.965 96.4871 25.7257 96.4871 25.7257H96.4893Z" fill="#013077"/>
<path d="M26.3618 18.9354C26.3618 25.2039 31.3173 30.283 37.4305 30.283C37.4305 30.283 40.9749 30.283 44.0504 30.283V31.616C44.0437 34.1019 46.077 36.0889 48.4948 35.9955C48.4948 32.2585 48.497 21.3029 48.4992 18.9331C48.1281 3.96484 26.7329 3.96712 26.364 18.9331L26.3618 18.9354ZM44.0504 25.7257C44.0504 25.7257 37.4305 25.7257 37.4283 25.7257C33.7706 25.7257 30.804 22.686 30.804 18.9331C31.0262 9.97357 43.8304 9.97813 44.0504 18.9331C44.0504 18.965 44.0482 25.7257 44.0482 25.7257H44.0504Z" fill="#013077"/>
<path d="M68.7923 11.621C68.7923 15.1779 70.6056 15.0868 70.6056 17.7072C70.6056 22.6996 68.4701 25.7279 63.5702 25.7279C58.6703 25.7279 56.5347 22.7019 56.5347 17.7072C56.5347 15.089 58.348 15.1779 58.348 11.621C58.348 8.06404 52.5015 7.52856 52.5015 7.52856V18.9354C52.5015 25.2039 57.4569 30.2852 63.5702 30.2852C69.6834 30.2852 74.6389 25.2039 74.6389 18.9354V7.52856C74.6389 7.52856 68.7923 8.0048 68.7923 11.621Z" fill="#013077"/>
</g>
<defs>
<clipPath id="clip0_25_70">
<rect width="131" height="36" fill="white"/>
</clipPath>
</defs>
</svg>
